<svg width="42" height="48" viewBox="0 0 42 48" fill="none" xmlns="http://www.w3.org/2000/svg">
<path d="M41.2086 6.03031L21.2476 0.0420107C21.0608 -0.0139425 20.8616 -0.0139425 20.6747 0.0420107L0.713732 6.03031C0.290995 6.15654 0.001217 6.54531 0.00112343 6.98648V28.9436C0.00112343 37.7684 13.4588 45.6191 20.6648 47.8626C20.8597 47.9239 21.0687 47.9239 21.2636 47.8626C28.4616 45.619 41.9193 37.7683 41.9193 28.9436V6.98638C41.9193 6.54578 41.6305 6.15719 41.2086 6.03031Z" fill="#FF0043"/>
<path d="M18.964 31.9377C18.6991 31.9382 18.4449 31.8334 18.2574 31.6462L10.273 23.6618C9.89015 23.2654 9.9011 22.6335 10.2975 22.2506C10.6844 21.8771 11.2975 21.8771 11.6842 22.2506L18.964 29.5283L32.2301 16.2623C32.6131 15.8658 33.2448 15.8548 33.6414 16.2378C34.0378 16.6207 34.0487 17.2525 33.6659 17.649C33.6578 17.6574 33.6497 17.6655 33.6414 17.6735L19.6687 31.6462C19.4816 31.8328 19.2283 31.9376 18.964 31.9377Z" fill="#FAFAFA"/>
</svg>
