<svg width="48" height="46" viewBox="0 0 48 46" fill="none" xmlns="http://www.w3.org/2000/svg">
<path d="M23.7931 0.396545C10.6736 0.396545 -9.02066e-07 10.0026 -9.02066e-07 21.8103C-9.02066e-07 25.9376 1.30545 29.9357 3.78152 33.3928C3.31279 38.5773 2.05652 42.4263 0.232378 44.2496C-0.00872505 44.4907 -0.0690009 44.8595 0.083275 45.1641C0.218103 45.4361 0.495689 45.6034 0.793103 45.6034C0.829585 45.6034 0.866068 45.6011 0.903344 45.5955C1.22455 45.5503 8.68607 44.4764 14.0831 41.3611C17.1477 42.5976 20.4121 43.2241 23.7931 43.2241C36.9126 43.2241 47.5862 33.6181 47.5862 21.8103C47.5862 10.0026 36.9126 0.396545 23.7931 0.396545Z" fill="#FF0043"/>
<path d="M12.6897 24.9828C10.9401 24.9828 9.51724 23.5599 9.51724 21.8104C9.51724 20.0608 10.9401 18.6379 12.6897 18.6379C14.4392 18.6379 15.8621 20.0608 15.8621 21.8104C15.8621 23.5599 14.4392 24.9828 12.6897 24.9828Z" fill="white"/>
<path d="M23.7931 24.9828C22.0435 24.9828 20.6207 23.5599 20.6207 21.8104C20.6207 20.0608 22.0435 18.6379 23.7931 18.6379C25.5427 18.6379 26.9655 20.0608 26.9655 21.8104C26.9655 23.5599 25.5427 24.9828 23.7931 24.9828Z" fill="white"/>
<path d="M34.8966 24.9828C33.147 24.9828 31.7241 23.5599 31.7241 21.8104C31.7241 20.0608 33.147 18.6379 34.8966 18.6379C36.6461 18.6379 38.069 20.0608 38.069 21.8104C38.069 23.5599 36.6461 24.9828 34.8966 24.9828Z" fill="white"/>
</svg>
